<svg xmlns="http://www.w3.org/2000/svg" version="1.1" xmlns:xlink="http://www.w3.org/1999/xlink" xmlns:svgjs="http://svgjs.dev/svgjs" width="128" height="128" viewBox="0 0 128 128"><g transform="matrix(0.4327731092436975,0,0,0.4327731092436975,36.4713639357026,12.760752631578939)"><svg viewBox="0 0 51 95" data-background-color="#ffffff" preserveAspectRatio="xMidYMid meet" height="238" width="128" xmlns="http://www.w3.org/2000/svg" xmlns:xlink="http://www.w3.org/1999/xlink"><g id="tight-bounds" transform="matrix(1,0,0,1,-0.15544716713881712,-0.24049999999999727)"><svg viewBox="0 0 51.31089433427763 95.481" height="95.481" width="51.31089433427763"><g><svg viewBox="0 0 51.31089433427763 95.481" height="95.481" width="51.31089433427763"><g><svg viewBox="0 0 51.31089433427763 95.481" height="95.481" width="51.31089433427763"><g><svg viewBox="0 0 51.31089433427763 95.481" height="95.481" width="51.31089433427763"><g><svg viewBox="0 0 51.31089433427763 95.481" height="95.481" width="51.31089433427763"><g><svg viewBox="0 0 51.31089433427763 95.481" height="95.481" width="51.31089433427763"><g><svg xmlns="http://www.w3.org/2000/svg" xmlns:xlink="http://www.w3.org/1999/xlink" version="1.1" x="0" y="0" viewBox="26.081999999999997 5.328 47.42500000000001 88.25" enable-background="new 0 0 100 100" xml:space="preserve" height="95.481" width="51.31089433427763" class="icon-icon-0" data-fill-palette-color="accent" id="icon-0"><g fill="#000000" data-fill-palette-color="accent"><path d="M71.538 50.438c-1.086 0-1.97 0.88-1.97 1.969v4.856c0 10.467-8.87 18.98-19.774 18.98-10.904 0-19.776-8.516-19.776-18.98v-4.856c0-1.089-0.881-1.969-1.968-1.969-1.087 0-1.968 0.88-1.968 1.969v4.856c0 11.994 9.588 21.851 21.744 22.821v9.556h-12.32v3.938h28.578v-3.938H51.762v-9.556c12.156-0.972 21.745-10.827 21.745-22.821v-4.856C73.507 51.318 72.626 50.438 71.538 50.438z" fill="#ffffff" data-fill-palette-color="accent"></path><path d="M49.794 5.328c-8.696 0-15.747 7.051-15.747 15.747V55.82c0 8.695 7.051 15.746 15.747 15.746 8.696 0 15.747-7.051 15.747-15.746V21.075C65.541 12.378 58.49 5.328 49.794 5.328zM49.794 12.225c1.868 0 3.383 1.515 3.383 3.383 0 1.868-1.515 3.383-3.383 3.383s-3.383-1.515-3.383-3.383C46.411 13.74 47.926 12.225 49.794 12.225zM40.856 24.69c0-1.868 1.515-3.383 3.383-3.383 1.868 0 3.383 1.515 3.383 3.383s-1.515 3.383-3.383 3.383C42.371 28.073 40.856 26.558 40.856 24.69zM49.794 37.582c-1.868 0-3.383-1.515-3.383-3.383 0-1.868 1.515-3.383 3.383-3.383s3.383 1.515 3.383 3.383C53.177 36.067 51.662 37.582 49.794 37.582zM56.561 28.073c-1.869 0-3.384-1.515-3.384-3.383s1.515-3.383 3.384-3.383 3.383 1.515 3.383 3.383S58.43 28.073 56.561 28.073z" fill="#ffffff" data-fill-palette-color="accent"></path></g></svg><g></g></g></svg></g></svg></g></svg></g></svg></g></svg></g><defs></defs></svg><rect width="51.31089433427763" height="95.481" fill="none" stroke="none" visibility="hidden"></rect></g></svg></g></svg>