<svg xmlns="http://www.w3.org/2000/svg" version="1.1" xmlns:xlink="http://www.w3.org/1999/xlink" xmlns:svgjs="http://svgjs.dev/svgjs" width="1000" height="156" viewBox="0 0 1000 156"><g transform="matrix(1,0,0,1,-0.6060606060606233,-0.2882271160927843)"><svg viewBox="0 0 396 62" data-background-color="#ffffff" preserveAspectRatio="xMidYMid meet" height="156" width="1000" xmlns="http://www.w3.org/2000/svg" xmlns:xlink="http://www.w3.org/1999/xlink"><g id="tight-bounds" transform="matrix(1,0,0,1,0.2400000000000091,0.11455180254969832)"><svg viewBox="0 0 395.52 61.77089639490059" height="61.77089639490059" width="395.52"><g><svg viewBox="0 0 463.94007486775894 72.45649852876912" height="61.77089639490059" width="395.52"><g><rect width="4.728076564711201" height="52.69086904588491" x="407.89716378196647" y="9.882814741442104" fill="#000000" opacity="1" stroke-width="0" stroke="transparent" fill-opacity="1" class="rect-rb-0" data-fill-palette-color="primary" rx="1%" id="rb-0" data-palette-color="#000000"></rect></g><g transform="matrix(1,0,0,1,0,10.013886554989078)"><svg viewBox="0 0 395.52 52.42872541879096" height="52.42872541879096" width="395.52"><g><svg viewBox="0 0 395.52 52.42872541879096" height="52.42872541879096" width="395.52"><g><svg viewBox="0 0 395.52 52.42872541879096" height="52.42872541879096" width="395.52"><g transform="matrix(1,0,0,1,0,0)"><svg width="395.52" viewBox="0.88 -35.55 265.78000000000003 35.55" height="52.42872541879096" data-palette-color="#000000"><g class="undefined-text-0" data-fill-palette-color="primary" id="text-0"><path d="M0.88-35.55L5.64 0 11.52 0 14.77-20.46 15.04-22.22 15.31-20.46 18.68 0 24.54 0 29.35-35.55 23.46-35.55 21.02-14.67 20.85-13.18 20.63-14.65 17.36-35.55 12.67-35.55 9.55-14.77 9.3-13.31 9.16-14.7 6.74-35.55 0.88-35.55ZM40.16-15.75L54.81-15.75 54.81-20.85 40.16-20.85 40.16-30.32 57.18-30.32 57.18-35.55 33.76-35.55 33.76 0 57.27 0 57.27-5.18 40.16-5.18 40.16-15.75Z" fill="#000000" data-fill-palette-color="primary"></path><path d="M75.39-30.32L86.37-30.32 86.37-35.55 58.17-35.55 58.17-30.32 69.04-30.32 69.04 0 75.39 0 75.39-30.32ZM97.14-7.79L108.07-7.79 110.29 0 116.94 0 105.56-35.55 99.85-35.55 88.22 0 94.89 0 97.14-7.79ZM106.54-13.23L98.72-13.23 102.68-26.81 106.54-13.23ZM144.37-5.18L127.58-5.18 127.58-35.55 121.18-35.55 121.18 0 144.37 0 144.37-5.18ZM157.07-10.79L160.85-14.99 170.06 0 177.65 0 165.08-19.85 177.14-35.55 169.35-35.55 160.31-23.36 157.07-19.04 157.07-35.55 150.65-35.55 150.65 0 157.07 0 157.07-10.79Z" fill="#949494" data-fill-palette-color="secondary"></path><path d="M180.85-35.55L180.85 0 190.13 0Q192.54 0 194.65-0.59 196.77-1.17 198.5-2.27L198.5-2.27Q200.01-3.22 201.28-4.63 202.55-6.03 203.48-7.71L203.48-7.71Q204.43-9.52 204.94-11.71 205.46-13.89 205.46-16.31L205.46-16.31 205.46-19.19Q205.46-21.73 204.91-23.97 204.36-26.22 203.33-28.08L203.33-28.08Q202.41-29.74 201.1-31.1 199.79-32.47 198.13-33.4L198.13-33.4Q196.4-34.42 194.32-34.99 192.25-35.55 189.86-35.55L189.86-35.55 180.85-35.55ZM187.27-5.13L187.27-30.37 189.86-30.37Q191.2-30.37 192.34-30.07 193.47-29.76 194.4-29.22L194.4-29.22Q195.64-28.52 196.56-27.38 197.47-26.25 198.04-24.8L198.04-24.8Q198.5-23.61 198.73-22.2 198.96-20.8 198.99-19.24L198.99-19.24 198.99-16.31Q198.96-14.67 198.73-13.26 198.5-11.84 198.06-10.67L198.06-10.67Q197.52-9.28 196.73-8.23 195.94-7.18 194.91-6.49L194.91-6.49Q193.93-5.83 192.74-5.48 191.54-5.13 190.13-5.13L190.13-5.13 187.27-5.13ZM217.81-15.75L232.46-15.75 232.46-20.85 217.81-20.85 217.81-30.32 234.83-30.32 234.83-35.55 211.41-35.55 211.41 0 234.92 0 234.92-5.18 217.81-5.18 217.81-15.75ZM238.61-35.55L249.47 0 255.79 0 266.66-35.55 259.68-35.55 253.23-11.67 252.6-9.38 252.01-11.62 245.61-35.55 238.61-35.55Z" fill="#000000" data-fill-palette-color="primary"></path></g></svg></g></svg></g></svg></g></svg></g><g transform="matrix(1,0,0,1,425.0024041286442,0)"><svg viewBox="0 0 38.93767073911475 72.45649852876912" height="72.45649852876912" width="38.93767073911475"><g><svg xmlns="http://www.w3.org/2000/svg" xmlns:xlink="http://www.w3.org/1999/xlink" version="1.1" x="0" y="0" viewBox="26.081999999999997 5.328 47.42500000000001 88.25" enable-background="new 0 0 100 100" xml:space="preserve" height="72.45649852876912" width="38.93767073911475" class="icon-icon-0" data-fill-palette-color="accent" id="icon-0"><g fill="#000000" data-fill-palette-color="accent"><path d="M71.538 50.438c-1.086 0-1.97 0.88-1.97 1.969v4.856c0 10.467-8.87 18.98-19.774 18.98-10.904 0-19.776-8.516-19.776-18.98v-4.856c0-1.089-0.881-1.969-1.968-1.969-1.087 0-1.968 0.88-1.968 1.969v4.856c0 11.994 9.588 21.851 21.744 22.821v9.556h-12.32v3.938h28.578v-3.938H51.762v-9.556c12.156-0.972 21.745-10.827 21.745-22.821v-4.856C73.507 51.318 72.626 50.438 71.538 50.438z" fill="#000000" data-fill-palette-color="accent"></path><path d="M49.794 5.328c-8.696 0-15.747 7.051-15.747 15.747V55.82c0 8.695 7.051 15.746 15.747 15.746 8.696 0 15.747-7.051 15.747-15.746V21.075C65.541 12.378 58.49 5.328 49.794 5.328zM49.794 12.225c1.868 0 3.383 1.515 3.383 3.383 0 1.868-1.515 3.383-3.383 3.383s-3.383-1.515-3.383-3.383C46.411 13.74 47.926 12.225 49.794 12.225zM40.856 24.69c0-1.868 1.515-3.383 3.383-3.383 1.868 0 3.383 1.515 3.383 3.383s-1.515 3.383-3.383 3.383C42.371 28.073 40.856 26.558 40.856 24.69zM49.794 37.582c-1.868 0-3.383-1.515-3.383-3.383 0-1.868 1.515-3.383 3.383-3.383s3.383 1.515 3.383 3.383C53.177 36.067 51.662 37.582 49.794 37.582zM56.561 28.073c-1.869 0-3.384-1.515-3.384-3.383s1.515-3.383 3.384-3.383 3.383 1.515 3.383 3.383S58.43 28.073 56.561 28.073z" fill="#000000" data-fill-palette-color="accent"></path></g></svg><g></g></g></svg></g></svg></g><defs></defs></svg><rect width="395.52" height="61.77089639490059" fill="none" stroke="none" visibility="hidden"></rect></g></svg></g></svg>