<svg xmlns="http://www.w3.org/2000/svg" version="1.1" xmlns:xlink="http://www.w3.org/1999/xlink" xmlns:svgjs="http://svgjs.dev/svgjs" width="1000" height="999" viewBox="0 0 1000 999"><g transform="matrix(1,0,0,1,-0.215743440233382,-0.21552769679306039)"><svg viewBox="0 0 343 343" data-background-color="#ffffff" preserveAspectRatio="xMidYMid meet" height="999" width="1000" xmlns="http://www.w3.org/2000/svg" xmlns:xlink="http://www.w3.org/1999/xlink"><g id="tight-bounds" transform="matrix(1,0,0,1,0.0740000000000407,0.07400000000001228)"><svg viewBox="0 0 342.85155851775386 342.85155851775386" height="342.85155851775386" width="342.85155851775386"><g><svg></svg></g><g><svg viewBox="0 0 342.85155851775386 342.85155851775386" height="342.85155851775386" width="342.85155851775386"><g><path d="M0 171.426c0-94.676 76.75-171.426 171.426-171.426 94.676 0 171.426 76.75 171.426 171.426 0 94.676-76.75 171.426-171.426 171.426-94.676 0-171.426-76.75-171.426-171.426zM171.426 339.408c92.774 0 167.983-75.208 167.982-167.982 0-92.774-75.208-167.983-167.982-167.983-92.774 0-167.983 75.208-167.983 167.983 0 92.774 75.208 167.983 167.983 167.982z" data-fill-palette-color="tertiary" fill="#000000" stroke="transparent"></path><ellipse rx="164.56874808852186" ry="164.56874808852186" cx="171.42577925887693" cy="171.42577925887693" fill="#000000" stroke="transparent" stroke-width="0" fill-opacity="1" data-fill-palette-color="tertiary"></ellipse></g><g transform="matrix(1,0,0,1,64.84655864529837,109.01053770194028)"><svg viewBox="0 0 213.1584412271571 124.83048311387331" height="124.83048311387331" width="213.1584412271571"><g><svg viewBox="0 0 328.7374942875915 192.51623343329288" height="124.83048311387331" width="213.1584412271571"><g><rect width="5.310158595304858" height="192.51623343329288" x="110.59298162949764" y="0" fill="#000000" opacity="1" stroke-width="0" stroke="transparent" fill-opacity="1" class="rect-rb-0" data-fill-palette-color="primary" rx="1%" id="rb-0" data-palette-color="#000000"></rect></g><g transform="matrix(1,0,0,1,129.80407895596704,0.478896103067882)"><svg viewBox="0 0 198.9334153316245 191.55844122715712" height="191.55844122715712" width="198.9334153316245"><g><svg viewBox="0 0 198.9334153316245 191.55844122715712" height="191.55844122715712" width="198.9334153316245"><g><svg viewBox="0 0 198.9334153316245 191.55844122715712" height="191.55844122715712" width="198.9334153316245"><g transform="matrix(1,0,0,1,0,0)"><svg width="198.9334153316245" viewBox="0.63 -35.55 120.12 112.64" height="191.55844122715712" data-palette-color="#ffffff"><svg></svg><svg></svg><svg></svg><g class="undefined-text-0" data-fill-palette-color="quaternary" id="text-0"><path d="M0.63-35.55l4.89 35.55h6.2l2.98-19.19 0.27-1.81 0.26 1.81 3.1 19.19h6.21l4.93-35.55h-6.3l-2.42 19.92-0.17 1.49-0.22-1.46-2.98-19.95h-4.9l-2.81 19.8-0.22 1.47-0.17-1.39-2.37-19.88zM40.48-15.58h14.6v-5.42h-14.6v-8.96h16.99v-5.59h-23.88v35.55h23.95v-5.54h-17.06z" fill="#ffffff" fill-rule="nonzero" stroke="none" stroke-width="1" stroke-linecap="butt" stroke-linejoin="miter" stroke-miterlimit="10" stroke-dasharray="" stroke-dashoffset="0" font-family="none" font-weight="none" font-size="none" text-anchor="none" style="mix-blend-mode: normal" data-fill-palette-color="quaternary" opacity="1"></path><path transform="translate(0,38.55)" d="M18.36-29.96h10.96v-5.59h-28.66v5.59h10.81v29.96h6.89zM40.01-7.42h10.67l2.08 7.42h7.23l-11.43-35.55h-6.23l-11.64 35.55h7.23zM49.07-13.26h-7.37l3.73-13.08zM87.21-5.54h-16.65v-30.01h-6.89v35.55h23.54zM100.05-10.47l3.76-4.13 8.79 14.6h8.15l-12.4-19.82 11.96-15.73h-8.4l-8.64 11.94-3.22 4.35v-16.29h-6.89v35.55h6.89z" fill="#ffffff" fill-rule="nonzero" stroke="none" stroke-width="1" stroke-linecap="butt" stroke-linejoin="miter" stroke-miterlimit="10" stroke-dasharray="" stroke-dashoffset="0" font-family="none" font-weight="none" font-size="none" text-anchor="none" style="mix-blend-mode: normal" data-fill-palette-color="quaternary" opacity="1"></path><path transform="translate(0,77.09)" d="M3.05-35.55v35.55h9.55c1.58 0 3.063-0.197 4.45-0.59 1.393-0.387 2.667-0.947 3.82-1.68v0c0.993-0.62 1.907-1.39 2.74-2.31 0.827-0.92 1.55-1.923 2.17-3.01v0c0.653-1.22 1.157-2.563 1.51-4.03 0.36-1.467 0.54-3.02 0.54-4.66v0-2.93c0-1.713-0.19-3.327-0.57-4.84-0.387-1.513-0.93-2.897-1.63-4.15v0c-0.6-1.027-1.303-1.973-2.11-2.84-0.807-0.873-1.72-1.61-2.74-2.21v0c-1.173-0.733-2.477-1.3-3.91-1.7-1.433-0.4-2.97-0.6-4.61-0.6v0zM9.96-5.52v-24.46h2.3c0.827 0 1.593 0.093 2.3 0.28 0.713 0.187 1.36 0.45 1.94 0.79v0c0.767 0.46 1.44 1.047 2.02 1.76 0.573 0.72 1.04 1.533 1.4 2.44v0c0.293 0.767 0.517 1.61 0.67 2.53 0.16 0.92 0.24 1.893 0.24 2.92v0 2.98c0 1.087-0.08 2.1-0.24 3.04-0.153 0.933-0.377 1.783-0.67 2.55v0c-0.36 0.873-0.787 1.64-1.28 2.3-0.493 0.66-1.05 1.203-1.67 1.63v0c-0.607 0.407-1.273 0.717-2 0.93-0.733 0.207-1.523 0.31-2.37 0.31v0zM40.48-15.58h14.6v-5.42h-14.6v-8.96h16.99v-5.59h-23.88v35.55h23.95v-5.54h-17.06zM60.77-35.55l10.74 35.55h6.98l10.77-35.55h-7.57l-6.06 23.2-0.65 2.41-0.61-2.39-6.04-23.22z" fill="#ffffff" fill-rule="nonzero" stroke="none" stroke-width="1" stroke-linecap="butt" stroke-linejoin="miter" stroke-miterlimit="10" stroke-dasharray="" stroke-dashoffset="0" font-family="none" font-weight="none" font-size="none" text-anchor="none" style="mix-blend-mode: normal" data-fill-palette-color="quaternary" opacity="1"></path></g></svg></g></svg></g></svg></g></svg></g><g transform="matrix(1,0,0,1,0,0.478896103067882)"><svg viewBox="0 0 96.69204289833309 191.55844122715712" height="191.55844122715712" width="96.69204289833309"><g><svg xmlns="http://www.w3.org/2000/svg" xmlns:xlink="http://www.w3.org/1999/xlink" version="1.1" x="0" y="0" viewBox="20.41899999999999 0.10999999999999943 50.421000000000014 99.89" enable-background="new 0 0 91.852 100" xml:space="preserve" height="191.55844122715712" width="96.69204289833309" class="icon-icon-0" data-fill-palette-color="quaternary" id="icon-0"><path d="M61.28 17.712c0.065-0.583 0.105-1.174 0.105-1.775 0-8.741-7.086-15.827-15.826-15.827-8.664 0-15.69 6.96-15.817 15.592h-0.067v5.217h23.879v4.818H29.676v5.105h23.879v4.818H29.676v5.104h23.879v4.817H29.676v10.725h0.065c0 0.062-0.009 0.121-0.009 0.182 0 8.743 7.086 15.829 15.828 15.829 8.74 0 15.826-7.086 15.826-15.829 0-0.601-0.04-1.19-0.105-1.774V17.712z" fill="#ffffff" data-fill-palette-color="quaternary"></path><path d="M70.84 56.357V45.476c0-1.656-1.342-2.998-2.998-2.998s-2.998 1.342-2.998 2.998v10.882c0 10.594-8.62 19.213-19.215 19.213s-19.213-8.619-19.213-19.213V45.476c0-1.656-1.342-2.998-2.998-2.998-1.656 0-2.999 1.342-2.999 2.998v10.882c0 12.823 9.627 23.434 22.032 25.002v12.645H27.139V100h37.476v-5.996H48.448V81.405C61.026 79.998 70.84 69.305 70.84 56.357z" fill="#ffffff" data-fill-palette-color="quaternary"></path></svg><g></g></g></svg></g></svg></g></svg></g></svg></g><defs></defs></svg><rect width="342.85155851775386" height="342.85155851775386" fill="none" stroke="none" visibility="hidden"></rect></g></svg></g></svg>